<mxfile host="Electron" agent="Mozilla/5.0 (Windows NT 10.0; Win64; x64) AppleWebKit/537.36 (KHTML, like Gecko) draw.io/28.0.6 Chrome/138.0.7204.100 Electron/37.2.3 Safari/537.36" version="28.0.6">
  <diagram name="Page-1" id="B9dQu_cTvU5eeaz4ovV9">
    <mxGraphModel dx="1426" dy="849" grid="1" gridSize="10" guides="1" tooltips="1" connect="1" arrows="1" fold="1" page="1" pageScale="1" pageWidth="850" pageHeight="1100" math="0" shadow="0">
      <root>
        <mxCell id="0" />
        <mxCell id="1" parent="0" />
        <mxCell id="TwBAO-G37FK94Cmqif5S-26" value="" style="edgeStyle=orthogonalEdgeStyle;rounded=0;orthogonalLoop=1;jettySize=auto;html=1;" parent="1" source="TwBAO-G37FK94Cmqif5S-1" target="TwBAO-G37FK94Cmqif5S-25" edge="1">
          <mxGeometry relative="1" as="geometry" />
        </mxCell>
        <mxCell id="TwBAO-G37FK94Cmqif5S-1" value="System ON" style="ellipse;whiteSpace=wrap;html=1;fillColor=#d5e8d4;strokeColor=#82b366;" parent="1" vertex="1">
          <mxGeometry x="300" y="30" width="100" height="60" as="geometry" />
        </mxCell>
        <mxCell id="TwBAO-G37FK94Cmqif5S-2" value="System Off" style="ellipse;whiteSpace=wrap;html=1;fillColor=#d5e8d4;strokeColor=#82b366;" parent="1" vertex="1">
          <mxGeometry x="300" y="1000" width="100" height="60" as="geometry" />
        </mxCell>
        <mxCell id="TwBAO-G37FK94Cmqif5S-3" value="Send alert &quot; no food&quot;&amp;nbsp;" style="rounded=0;whiteSpace=wrap;html=1;fillColor=#dae8fc;strokeColor=#6c8ebf;" parent="1" vertex="1">
          <mxGeometry x="640" y="510" width="120" height="60" as="geometry" />
        </mxCell>
        <mxCell id="OUCZM8KUeyUF50Grkzvb-2" value="" style="edgeStyle=orthogonalEdgeStyle;rounded=0;orthogonalLoop=1;jettySize=auto;html=1;entryX=0.5;entryY=0;entryDx=0;entryDy=0;" parent="1" source="TwBAO-G37FK94Cmqif5S-4" target="OUCZM8KUeyUF50Grkzvb-1" edge="1">
          <mxGeometry relative="1" as="geometry" />
        </mxCell>
        <mxCell id="TwBAO-G37FK94Cmqif5S-4" value="is it 8am and 6pm?" style="rhombus;whiteSpace=wrap;html=1;" parent="1" vertex="1">
          <mxGeometry x="275" y="220" width="150" height="140" as="geometry" />
        </mxCell>
        <mxCell id="OUCZM8KUeyUF50Grkzvb-10" value="" style="edgeStyle=orthogonalEdgeStyle;rounded=0;orthogonalLoop=1;jettySize=auto;html=1;" parent="1" source="TwBAO-G37FK94Cmqif5S-5" target="OUCZM8KUeyUF50Grkzvb-9" edge="1">
          <mxGeometry relative="1" as="geometry" />
        </mxCell>
        <mxCell id="OUCZM8KUeyUF50Grkzvb-16" value="" style="edgeStyle=orthogonalEdgeStyle;rounded=0;orthogonalLoop=1;jettySize=auto;html=1;" parent="1" source="TwBAO-G37FK94Cmqif5S-5" target="TwBAO-G37FK94Cmqif5S-3" edge="1">
          <mxGeometry relative="1" as="geometry" />
        </mxCell>
        <mxCell id="TwBAO-G37FK94Cmqif5S-5" value="is there food in the Bowl" style="rhombus;whiteSpace=wrap;html=1;" parent="1" vertex="1">
          <mxGeometry x="272.5" y="470" width="155" height="140" as="geometry" />
        </mxCell>
        <mxCell id="OUCZM8KUeyUF50Grkzvb-20" value="" style="edgeStyle=orthogonalEdgeStyle;rounded=0;orthogonalLoop=1;jettySize=auto;html=1;" parent="1" source="TwBAO-G37FK94Cmqif5S-12" target="OUCZM8KUeyUF50Grkzvb-18" edge="1">
          <mxGeometry relative="1" as="geometry" />
        </mxCell>
        <mxCell id="OUCZM8KUeyUF50Grkzvb-31" value="" style="edgeStyle=orthogonalEdgeStyle;rounded=0;orthogonalLoop=1;jettySize=auto;html=1;" parent="1" source="TwBAO-G37FK94Cmqif5S-12" target="OUCZM8KUeyUF50Grkzvb-22" edge="1">
          <mxGeometry relative="1" as="geometry" />
        </mxCell>
        <mxCell id="TwBAO-G37FK94Cmqif5S-12" value="weight sensor" style="rhombus;whiteSpace=wrap;html=1;" parent="1" vertex="1">
          <mxGeometry x="275" y="760" width="150" height="140" as="geometry" />
        </mxCell>
        <mxCell id="TwBAO-G37FK94Cmqif5S-19" value="YES" style="text;html=1;align=center;verticalAlign=middle;whiteSpace=wrap;rounded=0;" parent="1" vertex="1">
          <mxGeometry x="305" y="360" width="60" height="30" as="geometry" />
        </mxCell>
        <mxCell id="TwBAO-G37FK94Cmqif5S-27" value="" style="edgeStyle=orthogonalEdgeStyle;rounded=0;orthogonalLoop=1;jettySize=auto;html=1;" parent="1" source="TwBAO-G37FK94Cmqif5S-25" target="TwBAO-G37FK94Cmqif5S-4" edge="1">
          <mxGeometry relative="1" as="geometry" />
        </mxCell>
        <mxCell id="TwBAO-G37FK94Cmqif5S-25" value="feeding time" style="rounded=0;whiteSpace=wrap;html=1;fillColor=#dae8fc;strokeColor=#6c8ebf;" parent="1" vertex="1">
          <mxGeometry x="290" y="120" width="120" height="60" as="geometry" />
        </mxCell>
        <mxCell id="TwBAO-G37FK94Cmqif5S-41" value="YES" style="text;html=1;align=center;verticalAlign=middle;whiteSpace=wrap;rounded=0;" parent="1" vertex="1">
          <mxGeometry x="300" y="610" width="60" height="30" as="geometry" />
        </mxCell>
        <mxCell id="OUCZM8KUeyUF50Grkzvb-6" value="" style="edgeStyle=orthogonalEdgeStyle;rounded=0;orthogonalLoop=1;jettySize=auto;html=1;exitX=0.5;exitY=1;exitDx=0;exitDy=0;" parent="1" source="OUCZM8KUeyUF50Grkzvb-1" target="TwBAO-G37FK94Cmqif5S-5" edge="1">
          <mxGeometry relative="1" as="geometry" />
        </mxCell>
        <mxCell id="OUCZM8KUeyUF50Grkzvb-1" value="food lever sensor" style="rounded=0;whiteSpace=wrap;html=1;fillColor=#dae8fc;strokeColor=#6c8ebf;" parent="1" vertex="1">
          <mxGeometry x="290" y="390" width="120" height="60" as="geometry" />
        </mxCell>
        <mxCell id="OUCZM8KUeyUF50Grkzvb-12" value="" style="edgeStyle=orthogonalEdgeStyle;rounded=0;orthogonalLoop=1;jettySize=auto;html=1;" parent="1" source="OUCZM8KUeyUF50Grkzvb-9" target="TwBAO-G37FK94Cmqif5S-12" edge="1">
          <mxGeometry relative="1" as="geometry" />
        </mxCell>
        <mxCell id="OUCZM8KUeyUF50Grkzvb-9" value="Dispense food" style="rounded=0;whiteSpace=wrap;html=1;fillColor=#dae8fc;strokeColor=#6c8ebf;" parent="1" vertex="1">
          <mxGeometry x="290" y="650" width="120" height="60" as="geometry" />
        </mxCell>
        <mxCell id="OUCZM8KUeyUF50Grkzvb-13" value="NO" style="text;html=1;align=center;verticalAlign=middle;whiteSpace=wrap;rounded=0;" parent="1" vertex="1">
          <mxGeometry x="425" y="510" width="60" height="30" as="geometry" />
        </mxCell>
        <mxCell id="OUCZM8KUeyUF50Grkzvb-18" value="Send alert &quot;food not eaten&quot;&amp;nbsp;" style="rounded=0;whiteSpace=wrap;html=1;fillColor=#dae8fc;strokeColor=#6c8ebf;" parent="1" vertex="1">
          <mxGeometry x="490" y="800" width="120" height="60" as="geometry" />
        </mxCell>
        <mxCell id="OUCZM8KUeyUF50Grkzvb-19" value="" style="endArrow=classic;html=1;rounded=0;exitX=0.5;exitY=0;exitDx=0;exitDy=0;" parent="1" source="TwBAO-G37FK94Cmqif5S-3" edge="1">
          <mxGeometry width="50" height="50" relative="1" as="geometry">
            <mxPoint x="709" y="500" as="sourcePoint" />
            <mxPoint x="350" y="200" as="targetPoint" />
            <Array as="points">
              <mxPoint x="700" y="210" />
            </Array>
          </mxGeometry>
        </mxCell>
        <mxCell id="OUCZM8KUeyUF50Grkzvb-22" value="sucessful&amp;nbsp;" style="rounded=0;whiteSpace=wrap;html=1;fillColor=#dae8fc;strokeColor=#6c8ebf;" parent="1" vertex="1">
          <mxGeometry x="100" y="800" width="120" height="60" as="geometry" />
        </mxCell>
        <mxCell id="OUCZM8KUeyUF50Grkzvb-29" value="" style="edgeStyle=orthogonalEdgeStyle;rounded=0;orthogonalLoop=1;jettySize=auto;html=1;" parent="1" source="OUCZM8KUeyUF50Grkzvb-24" target="TwBAO-G37FK94Cmqif5S-2" edge="1">
          <mxGeometry relative="1" as="geometry" />
        </mxCell>
        <mxCell id="OUCZM8KUeyUF50Grkzvb-24" value="" style="ellipse;whiteSpace=wrap;html=1;aspect=fixed;" parent="1" vertex="1">
          <mxGeometry x="335" y="930" width="30" height="30" as="geometry" />
        </mxCell>
        <mxCell id="OUCZM8KUeyUF50Grkzvb-27" value="" style="endArrow=classic;html=1;rounded=0;exitX=0.5;exitY=1;exitDx=0;exitDy=0;entryX=0;entryY=0.5;entryDx=0;entryDy=0;" parent="1" source="OUCZM8KUeyUF50Grkzvb-22" target="OUCZM8KUeyUF50Grkzvb-24" edge="1">
          <mxGeometry width="50" height="50" relative="1" as="geometry">
            <mxPoint x="440" y="660" as="sourcePoint" />
            <mxPoint x="490" y="610" as="targetPoint" />
            <Array as="points">
              <mxPoint x="160" y="940" />
            </Array>
          </mxGeometry>
        </mxCell>
        <mxCell id="OUCZM8KUeyUF50Grkzvb-28" value="" style="endArrow=classic;html=1;rounded=0;exitX=0.5;exitY=1;exitDx=0;exitDy=0;entryX=1;entryY=0.5;entryDx=0;entryDy=0;" parent="1" source="OUCZM8KUeyUF50Grkzvb-18" target="OUCZM8KUeyUF50Grkzvb-24" edge="1">
          <mxGeometry width="50" height="50" relative="1" as="geometry">
            <mxPoint x="440" y="660" as="sourcePoint" />
            <mxPoint x="490" y="610" as="targetPoint" />
            <Array as="points">
              <mxPoint x="550" y="940" />
            </Array>
          </mxGeometry>
        </mxCell>
        <mxCell id="TwBAO-G37FK94Cmqif5S-42" value="YES" style="text;html=1;align=center;verticalAlign=middle;whiteSpace=wrap;rounded=0;" parent="1" vertex="1">
          <mxGeometry x="215" y="800" width="60" height="30" as="geometry" />
        </mxCell>
        <mxCell id="4wDGLvT50fAlAE10v4Y_-1" value="&lt;font style=&quot;font-size: 16px;&quot;&gt;Step3 Plan the solution (design the algorithm)&lt;/font&gt;&lt;div&gt;&lt;font style=&quot;font-size: 16px;&quot;&gt;Flowchart Diagram&lt;/font&gt;&lt;/div&gt;" style="text;html=1;align=center;verticalAlign=middle;whiteSpace=wrap;rounded=0;" parent="1" vertex="1">
          <mxGeometry x="450" y="10" width="340" height="90" as="geometry" />
        </mxCell>
        <mxCell id="4wDGLvT50fAlAE10v4Y_-2" value="NO" style="text;html=1;align=center;verticalAlign=middle;whiteSpace=wrap;rounded=0;" parent="1" vertex="1">
          <mxGeometry x="425" y="806" width="60" height="30" as="geometry" />
        </mxCell>
      </root>
    </mxGraphModel>
  </diagram>
</mxfile>
